<svg width="345" height="80" viewBox="0 0 345 80" fill="none" xmlns="http://www.w3.org/2000/svg">
<rect y="0.00390625" width="345" height="80" rx="18" fill="white"/>
<g opacity="0.1">
<path d="M311.901 9.44648L313.553 11.625C314.513 12.8899 315.977 13.6726 317.562 13.7676L320.291 13.9312L318.113 15.5837C316.848 16.5432 316.065 18.0075 315.97 19.5923L315.806 22.3218L314.154 20.1433C313.194 18.8783 311.73 18.0957 310.145 18.0007L307.416 17.8371L309.594 16.1846C310.859 15.225 311.642 13.7608 311.737 12.1759L311.901 9.44648Z" fill="#292C35"/>
<path d="M325.47 23.6953L325.405 24.5403C325.282 26.1233 325.858 27.6808 326.98 28.804L327.579 29.4037L326.734 29.3384C325.151 29.216 323.593 29.7914 322.47 30.9135L321.87 31.5124L321.936 30.6674C322.058 29.0844 321.483 27.527 320.361 26.4037L319.762 25.8041L320.607 25.8694C322.19 25.9917 323.747 25.4164 324.87 24.2943L325.47 23.6953Z" fill="#292C35"/>
<path d="M315.222 55.0267C309.939 54.0303 303.74 56.0065 300.023 57.6155C301.25 60.7097 304.302 69.1836 309.246 68.973C318.848 68.5639 315.838 57.0549 315.222 55.0267Z" fill="#292C35" stroke="#292C35" stroke-width="2.72"/>
<path d="M296.738 21.0759C278.546 27.1338 290.128 44.3624 298.193 52.2194C301.101 50.6953 305.955 48.5166 313.823 48.8261C315.453 30.7095 309.78 17.4074 296.738 21.0759Z" fill="#F8D562" stroke="#292C35" stroke-width="2.72"/>
</g>
</svg>
